<?xml version="1.0" encoding="iso-8859-1"?>
<!-- Generator: Adobe Illustrator 16.0.0, SVG Export Plug-In . SVG Version: 6.00 Build 0)  -->
<!DOCTYPE svg PUBLIC "-//W3C//DTD SVG 1.1//EN" "http://www.w3.org/Graphics/SVG/1.1/DTD/svg11.dtd">
<svg version="1.1" id="Capa_1" xmlns="http://www.w3.org/2000/svg" xmlns:xlink="http://www.w3.org/1999/xlink" x="0px" y="0px"
	 width="456.76px" height="456.76px" viewBox="0 0 456.76 456.76" style="enable-background:new 0 0 456.76 456.76;"
	 xml:space="preserve">
<g>
	<path d="M452.203,35.787H41.168c-2.518,0-4.563,2.045-4.563,4.569v222.966l36.541-28.095V90.101l170.851,125.291
		c1.607,1.173,3.783,1.173,5.402,0L420.243,90.101v201.433H270.417c0.261,1.543,0.473,3.109,0.473,4.717v31.812h181.308
		c2.518,0,4.562-2.045,4.562-4.563V40.356C456.76,37.832,454.721,35.787,452.203,35.787z M246.68,172.059L110.679,72.318h272.008
		L246.68,172.059z M100.722,299.986l-10.586,28.266l10.586,27.904l23.067,58.422c0.78,1.957,0.15,4.203-1.528,5.456
		c-0.839,0.633-1.832,0.939-2.825,0.939s-2.01-0.318-2.852-0.963L1.82,331.786c-1.144-0.887-1.82-2.27-1.82-3.712
		c0-1.46,0.671-2.825,1.82-3.712l114.764-88.236c1.667-1.288,3.995-1.288,5.677-0.023c1.685,1.266,2.309,3.5,1.528,5.45
		L100.722,299.986z M204.988,299.986l-10.583,28.266l10.583,27.904l23.066,58.422c0.783,1.957,0.153,4.203-1.524,5.456
		c-0.84,0.633-1.833,0.939-2.826,0.939c-0.993,0-2.01-0.318-2.852-0.963l-114.764-88.225c-1.144-0.887-1.82-2.27-1.82-3.712
		c0-1.46,0.671-2.825,1.82-3.712l114.764-88.236c1.664-1.288,3.996-1.288,5.678-0.023c1.684,1.266,2.308,3.5,1.524,5.45
		L204.988,299.986z"/>
</g>
<g>
</g>
<g>
</g>
<g>
</g>
<g>
</g>
<g>
</g>
<g>
</g>
<g>
</g>
<g>
</g>
<g>
</g>
<g>
</g>
<g>
</g>
<g>
</g>
<g>
</g>
<g>
</g>
<g>
</g>
</svg>
